# xmcd CD database file
#
# Track frame offsets:
#	150
#	18263
#	34697
#	58989
#	82446
#
# Disc length: 1348 seconds
#
# Revision: 0
# Processed by: cddbd v1.5.2PL0 Copyright (c) Steve Scherf et al.
# Submitted via: CDex 1.51
#
DISCID=3f054205
DTITLE=Sarah Jory - What I Really Meant To Say
DYEAR=2003
DGENRE=Country
TTITLE0=Think Of Me
TTITLE1=What I Really Meant To Say
TTITLE2=Slip Right Trough Your Fingers
TTITLE3=Tell It Like It Used To Be
TTITLE4=My Heart Will Go On
EXTD=YEAR: 2003
EXTT0=
EXTT1=
EXTT2=
EXTT3=
EXTT4=
PLAYORDER=
